<mxfile host="Electron" agent="Mozilla/5.0 (Windows NT 10.0; Win64; x64) AppleWebKit/537.36 (KHTML, like Gecko) draw.io/26.0.16 Chrome/132.0.6834.196 Electron/34.2.0 Safari/537.36" version="26.0.16">
  <diagram name="Page-1" id="fRl2iyi_1uMQqEXPaFhm">
    <mxGraphModel dx="2927" dy="2551" grid="1" gridSize="10" guides="1" tooltips="1" connect="1" arrows="1" fold="1" page="1" pageScale="1" pageWidth="827" pageHeight="1169" math="0" shadow="0">
      <root>
        <mxCell id="0" />
        <mxCell id="1" parent="0" />
        <mxCell id="0OkCAmIAAI_HGi2Hv4Mh-1" value="&lt;font&gt;car&lt;/font&gt;" style="rounded=0;whiteSpace=wrap;html=1;fillColor=#ffe6cc;strokeColor=#d79b00;fontColor=#FF3399;fontFamily=Comic Sans MS;fontSize=23;" parent="1" vertex="1">
          <mxGeometry x="190" y="320" width="120" height="60" as="geometry" />
        </mxCell>
        <mxCell id="0OkCAmIAAI_HGi2Hv4Mh-3" value="&lt;font&gt;client&lt;/font&gt;" style="rounded=0;whiteSpace=wrap;html=1;fillColor=#ffe6cc;strokeColor=#d79b00;fontColor=#FF3399;fontFamily=Comic Sans MS;fontSize=23;" parent="1" vertex="1">
          <mxGeometry x="890" y="320" width="120" height="60" as="geometry" />
        </mxCell>
        <mxCell id="cT8WpWTsaV4JPf6rcDv3-7" value="" style="shape=partialRectangle;whiteSpace=wrap;html=1;left=0;right=0;fillColor=none;" parent="1" vertex="1">
          <mxGeometry x="560" y="340" width="40" height="20" as="geometry" />
        </mxCell>
        <mxCell id="cT8WpWTsaV4JPf6rcDv3-8" value="" style="endArrow=classic;html=1;rounded=0;entryX=1;entryY=0.5;entryDx=0;entryDy=0;" parent="1" target="0OkCAmIAAI_HGi2Hv4Mh-1" edge="1">
          <mxGeometry width="50" height="50" relative="1" as="geometry">
            <mxPoint x="480" y="350" as="sourcePoint" />
            <mxPoint x="530" y="300" as="targetPoint" />
          </mxGeometry>
        </mxCell>
        <mxCell id="cT8WpWTsaV4JPf6rcDv3-11" value="" style="shape=partialRectangle;whiteSpace=wrap;html=1;left=0;right=0;fillColor=none;" parent="1" vertex="1">
          <mxGeometry x="730" y="340" width="40" height="20" as="geometry" />
        </mxCell>
        <mxCell id="cT8WpWTsaV4JPf6rcDv3-13" value="" style="endArrow=classic;html=1;rounded=0;entryX=0;entryY=0.5;entryDx=0;entryDy=0;exitX=1;exitY=0.5;exitDx=0;exitDy=0;" parent="1" target="0OkCAmIAAI_HGi2Hv4Mh-3" edge="1">
          <mxGeometry width="50" height="50" relative="1" as="geometry">
            <mxPoint x="840" y="350" as="sourcePoint" />
            <mxPoint x="450" y="360" as="targetPoint" />
          </mxGeometry>
        </mxCell>
        <mxCell id="cT8WpWTsaV4JPf6rcDv3-29" value="reserve" style="shape=ext;double=1;rounded=0;whiteSpace=wrap;html=1;fillColor=#ffe6cc;strokeColor=#000000;fontColor=#FF3399;align=center;verticalAlign=middle;fontFamily=Comic Sans MS;fontSize=23;strokeWidth=2;" parent="1" vertex="1">
          <mxGeometry x="600" y="320" width="130" height="60" as="geometry" />
        </mxCell>
        <mxCell id="cT8WpWTsaV4JPf6rcDv3-30" value="&lt;u style=&quot;font-size: 16px;&quot;&gt;personID&lt;/u&gt;" style="ellipse;whiteSpace=wrap;html=1;fillColor=#1ba1e2;fontColor=#66FF66;strokeColor=#006EAF;fontFamily=Times New Roman;fontSize=20;" parent="1" vertex="1">
          <mxGeometry x="510" y="420" width="70" height="50" as="geometry" />
        </mxCell>
        <mxCell id="cT8WpWTsaV4JPf6rcDv3-31" value="" style="endArrow=none;html=1;rounded=0;exitX=0.5;exitY=0;exitDx=0;exitDy=0;entryX=0;entryY=1;entryDx=0;entryDy=0;" parent="1" source="cT8WpWTsaV4JPf6rcDv3-30" target="cT8WpWTsaV4JPf6rcDv3-29" edge="1">
          <mxGeometry width="50" height="50" relative="1" as="geometry">
            <mxPoint x="545" y="580" as="sourcePoint" />
            <mxPoint x="675" y="520" as="targetPoint" />
          </mxGeometry>
        </mxCell>
        <mxCell id="cT8WpWTsaV4JPf6rcDv3-32" value="&lt;u&gt;carID&lt;/u&gt;" style="ellipse;whiteSpace=wrap;html=1;fillColor=#1ba1e2;fontColor=#66FF66;strokeColor=#006EAF;fontFamily=Times New Roman;fontSize=20;" parent="1" vertex="1">
          <mxGeometry x="560" y="470" width="70" height="50" as="geometry" />
        </mxCell>
        <mxCell id="cT8WpWTsaV4JPf6rcDv3-33" value="" style="endArrow=none;html=1;rounded=0;exitX=0.5;exitY=0;exitDx=0;exitDy=0;entryX=0.25;entryY=1;entryDx=0;entryDy=0;" parent="1" source="cT8WpWTsaV4JPf6rcDv3-32" target="cT8WpWTsaV4JPf6rcDv3-29" edge="1">
          <mxGeometry width="50" height="50" relative="1" as="geometry">
            <mxPoint x="615" y="620" as="sourcePoint" />
            <mxPoint x="670" y="420" as="targetPoint" />
          </mxGeometry>
        </mxCell>
        <mxCell id="F3ZU3AXajDH6FVEXSSdn-1" value="&lt;u&gt;dateFrom&lt;/u&gt;" style="ellipse;whiteSpace=wrap;html=1;fillColor=#1ba1e2;fontColor=#66FF66;strokeColor=#006EAF;fontFamily=Times New Roman;fontSize=17;" parent="1" vertex="1">
          <mxGeometry x="640" y="480" width="70" height="50" as="geometry" />
        </mxCell>
        <mxCell id="F3ZU3AXajDH6FVEXSSdn-2" value="" style="endArrow=none;html=1;rounded=0;exitX=0.5;exitY=0;exitDx=0;exitDy=0;entryX=0.5;entryY=1;entryDx=0;entryDy=0;" parent="1" source="F3ZU3AXajDH6FVEXSSdn-1" target="cT8WpWTsaV4JPf6rcDv3-29" edge="1">
          <mxGeometry width="50" height="50" relative="1" as="geometry">
            <mxPoint x="695" y="650" as="sourcePoint" />
            <mxPoint x="713" y="410" as="targetPoint" />
          </mxGeometry>
        </mxCell>
        <mxCell id="F3ZU3AXajDH6FVEXSSdn-3" value="&lt;u&gt;dateTo&lt;/u&gt;" style="ellipse;whiteSpace=wrap;html=1;fillColor=#1ba1e2;fontColor=#66FF66;strokeColor=#006EAF;fontFamily=Times New Roman;fontSize=20;" parent="1" vertex="1">
          <mxGeometry x="720" y="450" width="70" height="50" as="geometry" />
        </mxCell>
        <mxCell id="F3ZU3AXajDH6FVEXSSdn-4" value="" style="endArrow=none;html=1;rounded=0;exitX=0.5;exitY=0;exitDx=0;exitDy=0;entryX=0.75;entryY=1;entryDx=0;entryDy=0;" parent="1" source="F3ZU3AXajDH6FVEXSSdn-3" target="cT8WpWTsaV4JPf6rcDv3-29" edge="1">
          <mxGeometry width="50" height="50" relative="1" as="geometry">
            <mxPoint x="775" y="620" as="sourcePoint" />
            <mxPoint x="793" y="380" as="targetPoint" />
          </mxGeometry>
        </mxCell>
        <mxCell id="F3ZU3AXajDH6FVEXSSdn-5" value="fee" style="ellipse;whiteSpace=wrap;html=1;fillColor=#1ba1e2;fontColor=#66FF66;strokeColor=#006EAF;fontFamily=Times New Roman;fontSize=20;" parent="1" vertex="1">
          <mxGeometry x="790" y="410" width="70" height="50" as="geometry" />
        </mxCell>
        <mxCell id="F3ZU3AXajDH6FVEXSSdn-6" value="" style="endArrow=none;html=1;rounded=0;exitX=0;exitY=0;exitDx=0;exitDy=0;entryX=1;entryY=1;entryDx=0;entryDy=0;" parent="1" source="F3ZU3AXajDH6FVEXSSdn-5" target="cT8WpWTsaV4JPf6rcDv3-29" edge="1">
          <mxGeometry width="50" height="50" relative="1" as="geometry">
            <mxPoint x="835" y="570" as="sourcePoint" />
            <mxPoint x="853" y="330" as="targetPoint" />
          </mxGeometry>
        </mxCell>
        <mxCell id="F3ZU3AXajDH6FVEXSSdn-7" value="payment" style="shape=ext;double=1;rounded=0;whiteSpace=wrap;html=1;strokeColor=#000000;strokeWidth=2;align=center;verticalAlign=middle;fontFamily=Comic Sans MS;fontSize=23;fontColor=#FF3399;fillColor=#ffe6cc;" parent="1" vertex="1">
          <mxGeometry x="600" y="100" width="130" height="60" as="geometry" />
        </mxCell>
        <mxCell id="F3ZU3AXajDH6FVEXSSdn-8" value="&lt;font face=&quot;Tahoma&quot; style=&quot;font-size: 20px;&quot;&gt;IS&lt;/font&gt;&lt;div&gt;&lt;font face=&quot;Tahoma&quot; style=&quot;font-size: 20px;&quot;&gt;A&lt;/font&gt;&lt;/div&gt;" style="triangle;whiteSpace=wrap;html=1;direction=north;fillColor=#008a00;fontColor=#FF8000;strokeColor=#005700;fontSize=19;fontFamily=Lucida Console;" parent="1" vertex="1">
          <mxGeometry x="1050" y="170" width="120" height="80" as="geometry" />
        </mxCell>
        <mxCell id="F3ZU3AXajDH6FVEXSSdn-9" value="person" style="rounded=0;whiteSpace=wrap;html=1;fillColor=#ffe6cc;strokeColor=#d79b00;fontColor=#FF3399;fontFamily=Comic Sans MS;fontSize=23;" parent="1" vertex="1">
          <mxGeometry x="1050" y="70" width="120" height="60" as="geometry" />
        </mxCell>
        <mxCell id="F3ZU3AXajDH6FVEXSSdn-10" value="" style="endArrow=none;html=1;rounded=0;entryX=0.5;entryY=1;entryDx=0;entryDy=0;exitX=1;exitY=0.5;exitDx=0;exitDy=0;" parent="1" source="F3ZU3AXajDH6FVEXSSdn-8" target="F3ZU3AXajDH6FVEXSSdn-9" edge="1">
          <mxGeometry width="50" height="50" relative="1" as="geometry">
            <mxPoint x="1020" y="80" as="sourcePoint" />
            <mxPoint x="1070" y="30" as="targetPoint" />
          </mxGeometry>
        </mxCell>
        <mxCell id="F3ZU3AXajDH6FVEXSSdn-11" value="&lt;font style=&quot;font-size: 16px;&quot;&gt;&lt;u&gt;pID&lt;/u&gt;&lt;/font&gt;" style="ellipse;whiteSpace=wrap;html=1;fillColor=#1ba1e2;fontColor=#66FF66;strokeColor=#006EAF;fontFamily=Times New Roman;fontSize=20;" parent="1" vertex="1">
          <mxGeometry x="980" y="10" width="70" height="50" as="geometry" />
        </mxCell>
        <mxCell id="F3ZU3AXajDH6FVEXSSdn-12" value="" style="endArrow=none;html=1;rounded=0;exitX=0;exitY=0;exitDx=0;exitDy=0;entryX=0.5;entryY=1;entryDx=0;entryDy=0;" parent="1" source="F3ZU3AXajDH6FVEXSSdn-9" target="F3ZU3AXajDH6FVEXSSdn-11" edge="1">
          <mxGeometry width="50" height="50" relative="1" as="geometry">
            <mxPoint x="1165" as="sourcePoint" />
            <mxPoint x="1295" y="-60" as="targetPoint" />
          </mxGeometry>
        </mxCell>
        <mxCell id="F3ZU3AXajDH6FVEXSSdn-13" value="pName" style="ellipse;whiteSpace=wrap;html=1;fillColor=#1ba1e2;fontColor=#66FF66;strokeColor=#006EAF;fontFamily=Times New Roman;fontSize=20;" parent="1" vertex="1">
          <mxGeometry x="1005" y="-45" width="70" height="50" as="geometry" />
        </mxCell>
        <mxCell id="F3ZU3AXajDH6FVEXSSdn-14" value="" style="endArrow=none;html=1;rounded=0;exitX=0.25;exitY=0;exitDx=0;exitDy=0;entryX=0.5;entryY=1;entryDx=0;entryDy=0;" parent="1" source="F3ZU3AXajDH6FVEXSSdn-9" target="F3ZU3AXajDH6FVEXSSdn-13" edge="1">
          <mxGeometry width="50" height="50" relative="1" as="geometry">
            <mxPoint x="1195" as="sourcePoint" />
            <mxPoint x="1380" y="-50" as="targetPoint" />
          </mxGeometry>
        </mxCell>
        <mxCell id="F3ZU3AXajDH6FVEXSSdn-15" value="pAddress" style="ellipse;whiteSpace=wrap;html=1;fillColor=#1ba1e2;fontColor=#66FF66;strokeColor=#006EAF;fontFamily=Times New Roman;fontSize=17;" parent="1" vertex="1">
          <mxGeometry x="1050" y="-90" width="70" height="50" as="geometry" />
        </mxCell>
        <mxCell id="F3ZU3AXajDH6FVEXSSdn-16" value="" style="endArrow=none;html=1;rounded=0;exitX=0.5;exitY=0;exitDx=0;exitDy=0;entryX=0.5;entryY=1;entryDx=0;entryDy=0;" parent="1" source="F3ZU3AXajDH6FVEXSSdn-9" target="F3ZU3AXajDH6FVEXSSdn-15" edge="1">
          <mxGeometry width="50" height="50" relative="1" as="geometry">
            <mxPoint x="1225" as="sourcePoint" />
            <mxPoint x="1460" y="-20" as="targetPoint" />
          </mxGeometry>
        </mxCell>
        <mxCell id="F3ZU3AXajDH6FVEXSSdn-17" value="gender" style="ellipse;whiteSpace=wrap;html=1;fillColor=#1ba1e2;fontColor=#66FF66;strokeColor=#006EAF;fontFamily=Times New Roman;fontSize=20;" parent="1" vertex="1">
          <mxGeometry x="1100" y="-50" width="70" height="50" as="geometry" />
        </mxCell>
        <mxCell id="F3ZU3AXajDH6FVEXSSdn-18" value="" style="endArrow=none;html=1;rounded=0;exitX=0.75;exitY=0;exitDx=0;exitDy=0;entryX=0.5;entryY=1;entryDx=0;entryDy=0;" parent="1" source="F3ZU3AXajDH6FVEXSSdn-9" target="F3ZU3AXajDH6FVEXSSdn-17" edge="1">
          <mxGeometry width="50" height="50" relative="1" as="geometry">
            <mxPoint x="1255" y="15" as="sourcePoint" />
            <mxPoint x="1520" y="30" as="targetPoint" />
          </mxGeometry>
        </mxCell>
        <mxCell id="F3ZU3AXajDH6FVEXSSdn-19" value="birthDay" style="ellipse;whiteSpace=wrap;html=1;fillColor=#1ba1e2;fontColor=#66FF66;strokeColor=#006EAF;fontFamily=Times New Roman;fontSize=18;" parent="1" vertex="1">
          <mxGeometry x="1171" y="-30" width="70" height="50" as="geometry" />
        </mxCell>
        <mxCell id="F3ZU3AXajDH6FVEXSSdn-20" value="" style="endArrow=none;html=1;rounded=0;entryX=0;entryY=1;entryDx=0;entryDy=0;exitX=1;exitY=0;exitDx=0;exitDy=0;" parent="1" source="F3ZU3AXajDH6FVEXSSdn-9" target="F3ZU3AXajDH6FVEXSSdn-19" edge="1">
          <mxGeometry width="50" height="50" relative="1" as="geometry">
            <mxPoint x="1255" y="30" as="sourcePoint" />
            <mxPoint x="1460" y="100" as="targetPoint" />
          </mxGeometry>
        </mxCell>
        <mxCell id="F3ZU3AXajDH6FVEXSSdn-21" value="" style="endArrow=none;html=1;rounded=0;exitX=1;exitY=0;exitDx=0;exitDy=0;entryX=0;entryY=0.5;entryDx=0;entryDy=0;" parent="1" source="F3ZU3AXajDH6FVEXSSdn-9" target="F3ZU3AXajDH6FVEXSSdn-22" edge="1">
          <mxGeometry width="50" height="50" relative="1" as="geometry">
            <mxPoint x="1255" y="45" as="sourcePoint" />
            <mxPoint x="1285" y="90" as="targetPoint" />
          </mxGeometry>
        </mxCell>
        <mxCell id="F3ZU3AXajDH6FVEXSSdn-22" value="&lt;font style=&quot;font-size: 13px;&quot;&gt;phone&lt;/font&gt;&lt;div&gt;&lt;font style=&quot;font-size: 13px;&quot;&gt;Number&lt;/font&gt;&lt;/div&gt;" style="ellipse;shape=doubleEllipse;whiteSpace=wrap;html=1;fillColor=#1ba1e2;fontColor=#66FF66;strokeColor=light-dark(#006EAF, #030607);strokeWidth=2;fontFamily=Times New Roman;" parent="1" vertex="1">
          <mxGeometry x="1230" y="5" width="70" height="50" as="geometry" />
        </mxCell>
        <mxCell id="F3ZU3AXajDH6FVEXSSdn-23" value="" style="endArrow=none;html=1;rounded=0;entryX=0;entryY=0.25;entryDx=0;entryDy=0;exitX=0.5;exitY=0;exitDx=0;exitDy=0;" parent="1" source="0OkCAmIAAI_HGi2Hv4Mh-3" target="F3ZU3AXajDH6FVEXSSdn-8" edge="1">
          <mxGeometry width="50" height="50" relative="1" as="geometry">
            <mxPoint x="910" y="240" as="sourcePoint" />
            <mxPoint x="960" y="190" as="targetPoint" />
          </mxGeometry>
        </mxCell>
        <mxCell id="F3ZU3AXajDH6FVEXSSdn-28" value="" style="rhombus;whiteSpace=wrap;html=1;strokeColor=#3A5431;align=center;verticalAlign=middle;fontFamily=Helvetica;fontSize=18;fontColor=#4AEFFF;labelBackgroundColor=none;fillColor=#6d8764;" parent="1" vertex="1">
          <mxGeometry x="480" y="305" width="90" height="90" as="geometry" />
        </mxCell>
        <mxCell id="F3ZU3AXajDH6FVEXSSdn-29" value="create" style="rhombus;whiteSpace=wrap;html=1;fontColor=#4AEFFF;labelBackgroundColor=none;fillColor=#6d8764;strokeColor=light-dark(#3A5431, #111410);fontSize=18;" parent="1" vertex="1">
          <mxGeometry x="485" y="310" width="80" height="80" as="geometry" />
        </mxCell>
        <mxCell id="F3ZU3AXajDH6FVEXSSdn-30" value="" style="rhombus;whiteSpace=wrap;html=1;strokeColor=#3A5431;align=center;verticalAlign=middle;fontFamily=Helvetica;fontSize=18;fontColor=#4AEFFF;labelBackgroundColor=none;fillColor=#6d8764;" parent="1" vertex="1">
          <mxGeometry x="760" y="305" width="90" height="90" as="geometry" />
        </mxCell>
        <mxCell id="F3ZU3AXajDH6FVEXSSdn-31" value="doing" style="rhombus;whiteSpace=wrap;html=1;fontColor=#4AEFFF;labelBackgroundColor=none;fillColor=#6d8764;strokeColor=light-dark(#3A5431, #111410);fontSize=18;" parent="1" vertex="1">
          <mxGeometry x="765" y="310" width="80" height="80" as="geometry" />
        </mxCell>
        <mxCell id="F3ZU3AXajDH6FVEXSSdn-33" value="" style="rhombus;whiteSpace=wrap;html=1;strokeColor=#3A5431;align=center;verticalAlign=middle;fontFamily=Helvetica;fontSize=18;fontColor=#4AEFFF;labelBackgroundColor=none;fillColor=#6d8764;" parent="1" vertex="1">
          <mxGeometry x="620" y="200" width="90" height="90" as="geometry" />
        </mxCell>
        <mxCell id="F3ZU3AXajDH6FVEXSSdn-34" value="paying" style="rhombus;whiteSpace=wrap;html=1;fontColor=#4AEFFF;labelBackgroundColor=none;fillColor=#6d8764;strokeColor=light-dark(#3A5431, #111410);fontSize=18;" parent="1" vertex="1">
          <mxGeometry x="625" y="205" width="80" height="80" as="geometry" />
        </mxCell>
        <mxCell id="F3ZU3AXajDH6FVEXSSdn-37" value="" style="shape=partialRectangle;whiteSpace=wrap;html=1;left=0;right=0;fillColor=none;direction=south;" parent="1" vertex="1">
          <mxGeometry x="660" y="160" width="10" height="45" as="geometry" />
        </mxCell>
        <mxCell id="F3ZU3AXajDH6FVEXSSdn-40" value="" style="endArrow=classic;html=1;rounded=0;entryX=0.5;entryY=0;entryDx=0;entryDy=0;exitX=0.5;exitY=1;exitDx=0;exitDy=0;" parent="1" source="F3ZU3AXajDH6FVEXSSdn-33" target="cT8WpWTsaV4JPf6rcDv3-29" edge="1">
          <mxGeometry width="50" height="50" relative="1" as="geometry">
            <mxPoint x="460" y="110" as="sourcePoint" />
            <mxPoint x="510" y="60" as="targetPoint" />
          </mxGeometry>
        </mxCell>
        <mxCell id="F3ZU3AXajDH6FVEXSSdn-41" value="&lt;u style=&quot;font-size: 16px;&quot;&gt;personID&lt;/u&gt;" style="ellipse;whiteSpace=wrap;html=1;fillColor=#1ba1e2;fontColor=#66FF66;strokeColor=#006EAF;fontFamily=Times New Roman;fontSize=20;" parent="1" vertex="1">
          <mxGeometry x="480" y="40" width="70" height="50" as="geometry" />
        </mxCell>
        <mxCell id="F3ZU3AXajDH6FVEXSSdn-42" value="" style="endArrow=none;html=1;rounded=0;exitX=0.5;exitY=1;exitDx=0;exitDy=0;entryX=0;entryY=0;entryDx=0;entryDy=0;" parent="1" source="F3ZU3AXajDH6FVEXSSdn-41" target="F3ZU3AXajDH6FVEXSSdn-7" edge="1">
          <mxGeometry width="50" height="50" relative="1" as="geometry">
            <mxPoint x="580" y="120" as="sourcePoint" />
            <mxPoint x="607.5" y="100" as="targetPoint" />
          </mxGeometry>
        </mxCell>
        <mxCell id="F3ZU3AXajDH6FVEXSSdn-43" value="&lt;u&gt;carID&lt;/u&gt;" style="ellipse;whiteSpace=wrap;html=1;fillColor=#1ba1e2;fontColor=#66FF66;strokeColor=#006EAF;fontFamily=Times New Roman;fontSize=20;" parent="1" vertex="1">
          <mxGeometry x="520" y="-10" width="70" height="50" as="geometry" />
        </mxCell>
        <mxCell id="F3ZU3AXajDH6FVEXSSdn-44" value="" style="endArrow=none;html=1;rounded=0;exitX=0.5;exitY=1;exitDx=0;exitDy=0;entryX=0.25;entryY=0;entryDx=0;entryDy=0;" parent="1" source="F3ZU3AXajDH6FVEXSSdn-43" target="F3ZU3AXajDH6FVEXSSdn-7" edge="1">
          <mxGeometry width="50" height="50" relative="1" as="geometry">
            <mxPoint x="650" y="160" as="sourcePoint" />
            <mxPoint x="668" y="-80" as="targetPoint" />
          </mxGeometry>
        </mxCell>
        <mxCell id="F3ZU3AXajDH6FVEXSSdn-45" value="&lt;u&gt;dateFrom&lt;/u&gt;" style="ellipse;whiteSpace=wrap;html=1;fillColor=#1ba1e2;fontColor=#66FF66;strokeColor=#006EAF;fontFamily=Times New Roman;fontSize=17;" parent="1" vertex="1">
          <mxGeometry x="590" y="-30" width="70" height="50" as="geometry" />
        </mxCell>
        <mxCell id="F3ZU3AXajDH6FVEXSSdn-46" value="" style="endArrow=none;html=1;rounded=0;exitX=0.5;exitY=1;exitDx=0;exitDy=0;entryX=0.5;entryY=0;entryDx=0;entryDy=0;" parent="1" source="F3ZU3AXajDH6FVEXSSdn-45" target="F3ZU3AXajDH6FVEXSSdn-7" edge="1">
          <mxGeometry width="50" height="50" relative="1" as="geometry">
            <mxPoint x="730" y="190" as="sourcePoint" />
            <mxPoint x="700" y="-80" as="targetPoint" />
          </mxGeometry>
        </mxCell>
        <mxCell id="F3ZU3AXajDH6FVEXSSdn-47" value="&lt;u&gt;dateTo&lt;/u&gt;" style="ellipse;whiteSpace=wrap;html=1;fillColor=#1ba1e2;fontColor=#66FF66;strokeColor=#006EAF;fontFamily=Times New Roman;fontSize=20;direction=west;" parent="1" vertex="1">
          <mxGeometry x="660" y="-40" width="70" height="50" as="geometry" />
        </mxCell>
        <mxCell id="F3ZU3AXajDH6FVEXSSdn-48" value="" style="endArrow=none;html=1;rounded=0;exitX=0.5;exitY=0;exitDx=0;exitDy=0;entryX=0.75;entryY=0;entryDx=0;entryDy=0;" parent="1" source="F3ZU3AXajDH6FVEXSSdn-47" target="F3ZU3AXajDH6FVEXSSdn-7" edge="1">
          <mxGeometry width="50" height="50" relative="1" as="geometry">
            <mxPoint x="810" y="160" as="sourcePoint" />
            <mxPoint x="733" y="-80" as="targetPoint" />
          </mxGeometry>
        </mxCell>
        <mxCell id="F3ZU3AXajDH6FVEXSSdn-53" value="&lt;u&gt;payDate&lt;/u&gt;" style="ellipse;whiteSpace=wrap;html=1;fillColor=#1ba1e2;fontColor=#66FF66;strokeColor=#006EAF;fontFamily=Times New Roman;fontSize=18;" parent="1" vertex="1">
          <mxGeometry x="730" y="-10" width="70" height="50" as="geometry" />
        </mxCell>
        <mxCell id="F3ZU3AXajDH6FVEXSSdn-54" value="" style="endArrow=none;html=1;rounded=0;exitX=1;exitY=0;exitDx=0;exitDy=0;entryX=0;entryY=1;entryDx=0;entryDy=0;" parent="1" source="F3ZU3AXajDH6FVEXSSdn-7" target="F3ZU3AXajDH6FVEXSSdn-53" edge="1">
          <mxGeometry width="50" height="50" relative="1" as="geometry">
            <mxPoint x="720" y="-225" as="sourcePoint" />
            <mxPoint x="1070" y="-280" as="targetPoint" />
          </mxGeometry>
        </mxCell>
        <mxCell id="F3ZU3AXajDH6FVEXSSdn-55" value="amount" style="ellipse;whiteSpace=wrap;html=1;fillColor=#1ba1e2;fontColor=#66FF66;strokeColor=#006EAF;fontFamily=Times New Roman;fontSize=18;" parent="1" vertex="1">
          <mxGeometry x="790" y="30" width="70" height="50" as="geometry" />
        </mxCell>
        <mxCell id="F3ZU3AXajDH6FVEXSSdn-56" value="" style="endArrow=none;html=1;rounded=0;entryX=0;entryY=1;entryDx=0;entryDy=0;exitX=1;exitY=0.25;exitDx=0;exitDy=0;" parent="1" source="F3ZU3AXajDH6FVEXSSdn-7" target="F3ZU3AXajDH6FVEXSSdn-55" edge="1">
          <mxGeometry width="50" height="50" relative="1" as="geometry">
            <mxPoint x="720" y="-210" as="sourcePoint" />
            <mxPoint x="1010" y="-210" as="targetPoint" />
          </mxGeometry>
        </mxCell>
        <mxCell id="F3ZU3AXajDH6FVEXSSdn-85" value="&lt;font&gt;fixing&lt;/font&gt;" style="rounded=0;whiteSpace=wrap;html=1;fillColor=#ffe6cc;strokeColor=#d79b00;fontColor=#FF3399;fontFamily=Comic Sans MS;fontSize=23;" parent="1" vertex="1">
          <mxGeometry x="195" y="773.75" width="120" height="60" as="geometry" />
        </mxCell>
        <mxCell id="F3ZU3AXajDH6FVEXSSdn-86" value="&lt;u&gt;dateFrom&lt;/u&gt;" style="ellipse;whiteSpace=wrap;html=1;fillColor=#1ba1e2;fontColor=#66FF66;strokeColor=#006EAF;fontFamily=Times New Roman;fontSize=17;" parent="1" vertex="1">
          <mxGeometry x="220" y="903.75" width="70" height="50" as="geometry" />
        </mxCell>
        <mxCell id="F3ZU3AXajDH6FVEXSSdn-87" value="" style="endArrow=none;html=1;rounded=0;exitX=0.5;exitY=0;exitDx=0;exitDy=0;entryX=0.5;entryY=1;entryDx=0;entryDy=0;" parent="1" source="F3ZU3AXajDH6FVEXSSdn-86" target="F3ZU3AXajDH6FVEXSSdn-85" edge="1">
          <mxGeometry width="50" height="50" relative="1" as="geometry">
            <mxPoint x="275" y="1108.75" as="sourcePoint" />
            <mxPoint x="245" y="838.75" as="targetPoint" />
          </mxGeometry>
        </mxCell>
        <mxCell id="F3ZU3AXajDH6FVEXSSdn-88" value="&lt;u&gt;dateTo&lt;/u&gt;" style="ellipse;whiteSpace=wrap;html=1;fillColor=#1ba1e2;fontColor=#66FF66;strokeColor=#006EAF;fontFamily=Times New Roman;fontSize=20;" parent="1" vertex="1">
          <mxGeometry x="300" y="903.75" width="70" height="50" as="geometry" />
        </mxCell>
        <mxCell id="F3ZU3AXajDH6FVEXSSdn-89" value="" style="endArrow=none;html=1;rounded=0;exitX=0.5;exitY=0;exitDx=0;exitDy=0;entryX=0.75;entryY=1;entryDx=0;entryDy=0;" parent="1" source="F3ZU3AXajDH6FVEXSSdn-88" target="F3ZU3AXajDH6FVEXSSdn-85" edge="1">
          <mxGeometry width="50" height="50" relative="1" as="geometry">
            <mxPoint x="355" y="1078.75" as="sourcePoint" />
            <mxPoint x="278" y="838.75" as="targetPoint" />
          </mxGeometry>
        </mxCell>
        <mxCell id="F3ZU3AXajDH6FVEXSSdn-91" value="&lt;u&gt;carID&lt;/u&gt;" style="ellipse;whiteSpace=wrap;html=1;fillColor=#1ba1e2;fontColor=#66FF66;strokeColor=#006EAF;fontFamily=Times New Roman;fontSize=20;" parent="1" vertex="1">
          <mxGeometry x="150" y="873.75" width="70" height="50" as="geometry" />
        </mxCell>
        <mxCell id="F3ZU3AXajDH6FVEXSSdn-92" value="" style="endArrow=none;html=1;rounded=0;exitX=0.5;exitY=0;exitDx=0;exitDy=0;entryX=0.25;entryY=1;entryDx=0;entryDy=0;" parent="1" source="F3ZU3AXajDH6FVEXSSdn-91" target="F3ZU3AXajDH6FVEXSSdn-85" edge="1">
          <mxGeometry width="50" height="50" relative="1" as="geometry">
            <mxPoint x="195" y="1058.75" as="sourcePoint" />
            <mxPoint x="213" y="818.75" as="targetPoint" />
          </mxGeometry>
        </mxCell>
        <mxCell id="F3ZU3AXajDH6FVEXSSdn-93" value="cost" style="ellipse;whiteSpace=wrap;html=1;fillColor=#1ba1e2;fontColor=#66FF66;strokeColor=#006EAF;fontFamily=Times New Roman;fontSize=20;" parent="1" vertex="1">
          <mxGeometry x="370" y="868.75" width="70" height="50" as="geometry" />
        </mxCell>
        <mxCell id="F3ZU3AXajDH6FVEXSSdn-94" value="" style="endArrow=none;html=1;rounded=0;exitX=0;exitY=0;exitDx=0;exitDy=0;entryX=1;entryY=1;entryDx=0;entryDy=0;" parent="1" source="F3ZU3AXajDH6FVEXSSdn-93" target="F3ZU3AXajDH6FVEXSSdn-85" edge="1">
          <mxGeometry width="50" height="50" relative="1" as="geometry">
            <mxPoint x="425" y="1028.75" as="sourcePoint" />
            <mxPoint x="320" y="838.75" as="targetPoint" />
          </mxGeometry>
        </mxCell>
        <mxCell id="F3ZU3AXajDH6FVEXSSdn-95" value="have" style="rhombus;whiteSpace=wrap;html=1;fontColor=#4AEFFF;labelBackgroundColor=none;fillColor=#6d8764;strokeColor=light-dark(#3A5431, #111410);fontSize=18;" parent="1" vertex="1">
          <mxGeometry x="210" y="465" width="80" height="80" as="geometry" />
        </mxCell>
        <mxCell id="F3ZU3AXajDH6FVEXSSdn-96" value="" style="endArrow=classic;html=1;rounded=0;entryX=0.5;entryY=1;entryDx=0;entryDy=0;exitX=0.5;exitY=0;exitDx=0;exitDy=0;" parent="1" source="F3ZU3AXajDH6FVEXSSdn-95" target="0OkCAmIAAI_HGi2Hv4Mh-1" edge="1">
          <mxGeometry width="50" height="50" relative="1" as="geometry">
            <mxPoint x="65" y="480" as="sourcePoint" />
            <mxPoint x="115" y="430" as="targetPoint" />
          </mxGeometry>
        </mxCell>
        <mxCell id="F3ZU3AXajDH6FVEXSSdn-97" value="" style="shape=partialRectangle;whiteSpace=wrap;html=1;left=0;right=0;fillColor=none;direction=south;" parent="1" vertex="1">
          <mxGeometry x="246.25" y="540" width="7.5" height="240" as="geometry" />
        </mxCell>
        <mxCell id="F3ZU3AXajDH6FVEXSSdn-99" value="" style="shape=partialRectangle;whiteSpace=wrap;html=1;left=0;right=0;fillColor=none;direction=west;" parent="1" vertex="1">
          <mxGeometry x="315" y="796.25" width="65" height="7.5" as="geometry" />
        </mxCell>
        <mxCell id="F3ZU3AXajDH6FVEXSSdn-100" value="&lt;font&gt;workShop&lt;/font&gt;" style="rounded=0;whiteSpace=wrap;html=1;fillColor=#ffe6cc;strokeColor=#d79b00;fontColor=#FF3399;fontFamily=Comic Sans MS;fontSize=23;" parent="1" vertex="1">
          <mxGeometry x="520" y="770" width="120" height="60" as="geometry" />
        </mxCell>
        <mxCell id="F3ZU3AXajDH6FVEXSSdn-102" value="address" style="ellipse;whiteSpace=wrap;html=1;fillColor=#1ba1e2;fontColor=#66FF66;strokeColor=#006EAF;fontFamily=Times New Roman;fontSize=20;direction=west;" parent="1" vertex="1">
          <mxGeometry x="590" y="863.75" width="70" height="50" as="geometry" />
        </mxCell>
        <mxCell id="F3ZU3AXajDH6FVEXSSdn-103" value="" style="endArrow=none;html=1;rounded=0;exitX=0.5;exitY=1;exitDx=0;exitDy=0;entryX=0.5;entryY=1;entryDx=0;entryDy=0;" parent="1" source="F3ZU3AXajDH6FVEXSSdn-100" target="F3ZU3AXajDH6FVEXSSdn-102" edge="1">
          <mxGeometry width="50" height="50" relative="1" as="geometry">
            <mxPoint x="430" y="733.75" as="sourcePoint" />
            <mxPoint x="750" y="643.75" as="targetPoint" />
          </mxGeometry>
        </mxCell>
        <mxCell id="F3ZU3AXajDH6FVEXSSdn-104" value="&lt;u&gt;shopID&lt;/u&gt;" style="ellipse;whiteSpace=wrap;html=1;fillColor=#1ba1e2;fontColor=#66FF66;strokeColor=#006EAF;fontFamily=Times New Roman;fontSize=20;" parent="1" vertex="1">
          <mxGeometry x="500" y="863.75" width="70" height="50" as="geometry" />
        </mxCell>
        <mxCell id="F3ZU3AXajDH6FVEXSSdn-105" value="" style="endArrow=none;html=1;rounded=0;exitX=0.5;exitY=0;exitDx=0;exitDy=0;entryX=0.25;entryY=1;entryDx=0;entryDy=0;" parent="1" source="F3ZU3AXajDH6FVEXSSdn-104" target="F3ZU3AXajDH6FVEXSSdn-100" edge="1">
          <mxGeometry width="50" height="50" relative="1" as="geometry">
            <mxPoint x="475" y="1073.75" as="sourcePoint" />
            <mxPoint x="540" y="873.75" as="targetPoint" />
          </mxGeometry>
        </mxCell>
        <mxCell id="F3ZU3AXajDH6FVEXSSdn-106" value="&lt;font&gt;staff&lt;/font&gt;" style="rounded=0;whiteSpace=wrap;html=1;fillColor=#ffe6cc;strokeColor=#d79b00;fontColor=#FF3399;fontFamily=Comic Sans MS;fontSize=23;" parent="1" vertex="1">
          <mxGeometry x="1050" y="320" width="120" height="60" as="geometry" />
        </mxCell>
        <mxCell id="F3ZU3AXajDH6FVEXSSdn-107" value="" style="endArrow=none;html=1;rounded=0;entryX=0;entryY=0.5;entryDx=0;entryDy=0;exitX=0.5;exitY=0;exitDx=0;exitDy=0;" parent="1" source="F3ZU3AXajDH6FVEXSSdn-106" target="F3ZU3AXajDH6FVEXSSdn-8" edge="1">
          <mxGeometry width="50" height="50" relative="1" as="geometry">
            <mxPoint x="1230" y="260" as="sourcePoint" />
            <mxPoint x="1280" y="210" as="targetPoint" />
          </mxGeometry>
        </mxCell>
        <mxCell id="F3ZU3AXajDH6FVEXSSdn-108" value="has" style="rhombus;whiteSpace=wrap;html=1;fontColor=#4AEFFF;labelBackgroundColor=none;fillColor=#6d8764;strokeColor=light-dark(#3A5431, #111410);fontSize=18;" parent="1" vertex="1">
          <mxGeometry x="370" y="760" width="80" height="80" as="geometry" />
        </mxCell>
        <mxCell id="F3ZU3AXajDH6FVEXSSdn-109" value="" style="endArrow=classic;html=1;rounded=0;entryX=0;entryY=0.5;entryDx=0;entryDy=0;" parent="1" target="F3ZU3AXajDH6FVEXSSdn-100" edge="1">
          <mxGeometry width="50" height="50" relative="1" as="geometry">
            <mxPoint x="450" y="800" as="sourcePoint" />
            <mxPoint x="500" y="750" as="targetPoint" />
          </mxGeometry>
        </mxCell>
        <mxCell id="F3ZU3AXajDH6FVEXSSdn-110" value="workShopID" style="ellipse;whiteSpace=wrap;html=1;fillColor=#1ba1e2;fontColor=#66FF66;strokeColor=#006EAF;fontFamily=Times New Roman;fontSize=13;" parent="1" vertex="1">
          <mxGeometry x="1130" y="450" width="70" height="50" as="geometry" />
        </mxCell>
        <mxCell id="F3ZU3AXajDH6FVEXSSdn-111" value="" style="endArrow=none;html=1;rounded=0;exitX=0.5;exitY=0;exitDx=0;exitDy=0;entryX=0.75;entryY=1;entryDx=0;entryDy=0;" parent="1" source="F3ZU3AXajDH6FVEXSSdn-110" target="F3ZU3AXajDH6FVEXSSdn-106" edge="1">
          <mxGeometry width="50" height="50" relative="1" as="geometry">
            <mxPoint x="1265" y="595" as="sourcePoint" />
            <mxPoint x="1160" y="405" as="targetPoint" />
          </mxGeometry>
        </mxCell>
        <mxCell id="F3ZU3AXajDH6FVEXSSdn-112" value="works" style="rhombus;whiteSpace=wrap;html=1;fontColor=#4AEFFF;labelBackgroundColor=none;fillColor=#6d8764;strokeColor=light-dark(#3A5431, #111410);fontSize=18;" parent="1" vertex="1">
          <mxGeometry x="1075" y="760" width="80" height="80" as="geometry" />
        </mxCell>
        <mxCell id="F3ZU3AXajDH6FVEXSSdn-135" value="" style="endArrow=classic;html=1;rounded=0;entryX=1.009;entryY=0.394;entryDx=0;entryDy=0;entryPerimeter=0;exitX=0.063;exitY=0.421;exitDx=0;exitDy=0;exitPerimeter=0;" parent="1" source="F3ZU3AXajDH6FVEXSSdn-112" target="F3ZU3AXajDH6FVEXSSdn-100" edge="1">
          <mxGeometry width="50" height="50" relative="1" as="geometry">
            <mxPoint x="810" y="810" as="sourcePoint" />
            <mxPoint x="860" y="760" as="targetPoint" />
          </mxGeometry>
        </mxCell>
        <mxCell id="F3ZU3AXajDH6FVEXSSdn-136" value="" style="endArrow=classic;html=1;rounded=0;entryX=0.992;entryY=0.661;entryDx=0;entryDy=0;entryPerimeter=0;exitX=0.037;exitY=0.586;exitDx=0;exitDy=0;exitPerimeter=0;" parent="1" source="F3ZU3AXajDH6FVEXSSdn-112" target="F3ZU3AXajDH6FVEXSSdn-100" edge="1">
          <mxGeometry width="50" height="50" relative="1" as="geometry">
            <mxPoint x="840" y="870" as="sourcePoint" />
            <mxPoint x="890" y="820" as="targetPoint" />
          </mxGeometry>
        </mxCell>
        <mxCell id="F3ZU3AXajDH6FVEXSSdn-138" value="" style="endArrow=none;html=1;rounded=0;entryX=0.5;entryY=1;entryDx=0;entryDy=0;exitX=0.5;exitY=0;exitDx=0;exitDy=0;" parent="1" source="F3ZU3AXajDH6FVEXSSdn-112" target="F3ZU3AXajDH6FVEXSSdn-106" edge="1">
          <mxGeometry width="50" height="50" relative="1" as="geometry">
            <mxPoint x="1130" y="590" as="sourcePoint" />
            <mxPoint x="1180" y="540" as="targetPoint" />
          </mxGeometry>
        </mxCell>
        <mxCell id="F3ZU3AXajDH6FVEXSSdn-139" value="&lt;font&gt;manager&lt;/font&gt;" style="rounded=0;whiteSpace=wrap;html=1;fillColor=#ffe6cc;strokeColor=#d79b00;fontColor=#FF3399;fontFamily=Comic Sans MS;fontSize=23;" parent="1" vertex="1">
          <mxGeometry x="1215" y="320" width="120" height="60" as="geometry" />
        </mxCell>
        <mxCell id="F3ZU3AXajDH6FVEXSSdn-140" value="" style="endArrow=none;html=1;rounded=0;entryX=0;entryY=0.75;entryDx=0;entryDy=0;exitX=0.5;exitY=0;exitDx=0;exitDy=0;" parent="1" source="F3ZU3AXajDH6FVEXSSdn-139" target="F3ZU3AXajDH6FVEXSSdn-8" edge="1">
          <mxGeometry width="50" height="50" relative="1" as="geometry">
            <mxPoint x="1430" y="270" as="sourcePoint" />
            <mxPoint x="1480" y="220" as="targetPoint" />
          </mxGeometry>
        </mxCell>
        <mxCell id="F3ZU3AXajDH6FVEXSSdn-141" value="&lt;u&gt;workShopID&lt;/u&gt;" style="ellipse;whiteSpace=wrap;html=1;fillColor=#1ba1e2;fontColor=#66FF66;strokeColor=#006EAF;fontFamily=Times New Roman;fontSize=13;" parent="1" vertex="1">
          <mxGeometry x="1310" y="450" width="70" height="50" as="geometry" />
        </mxCell>
        <mxCell id="F3ZU3AXajDH6FVEXSSdn-142" value="" style="endArrow=none;html=1;rounded=0;exitX=0.5;exitY=0;exitDx=0;exitDy=0;entryX=0.75;entryY=1;entryDx=0;entryDy=0;" parent="1" source="F3ZU3AXajDH6FVEXSSdn-141" target="F3ZU3AXajDH6FVEXSSdn-139" edge="1">
          <mxGeometry width="50" height="50" relative="1" as="geometry">
            <mxPoint x="1460" y="597.5" as="sourcePoint" />
            <mxPoint x="1250" y="387.5" as="targetPoint" />
          </mxGeometry>
        </mxCell>
        <mxCell id="F3ZU3AXajDH6FVEXSSdn-145" value="has" style="rhombus;whiteSpace=wrap;html=1;fontColor=#4AEFFF;labelBackgroundColor=none;fillColor=#6d8764;strokeColor=light-dark(#3A5431, #111410);fontSize=18;" parent="1" vertex="1">
          <mxGeometry x="1200" y="690" width="80" height="80" as="geometry" />
        </mxCell>
        <mxCell id="F3ZU3AXajDH6FVEXSSdn-148" value="" style="endArrow=none;html=1;rounded=0;entryX=0;entryY=0.5;entryDx=0;entryDy=0;exitX=0.5;exitY=0;exitDx=0;exitDy=0;" parent="1" source="F3ZU3AXajDH6FVEXSSdn-100" target="F3ZU3AXajDH6FVEXSSdn-145" edge="1">
          <mxGeometry width="50" height="50" relative="1" as="geometry">
            <mxPoint x="580" y="740" as="sourcePoint" />
            <mxPoint x="630" y="700" as="targetPoint" />
            <Array as="points">
              <mxPoint x="580" y="730" />
            </Array>
          </mxGeometry>
        </mxCell>
        <mxCell id="F3ZU3AXajDH6FVEXSSdn-151" value="" style="endArrow=none;html=1;rounded=0;entryX=0;entryY=0.5;entryDx=0;entryDy=0;exitX=0.5;exitY=0;exitDx=0;exitDy=0;" parent="1" edge="1">
          <mxGeometry width="50" height="50" relative="1" as="geometry">
            <mxPoint x="590" y="780" as="sourcePoint" />
            <mxPoint x="1210" y="740" as="targetPoint" />
            <Array as="points">
              <mxPoint x="590" y="740" />
            </Array>
          </mxGeometry>
        </mxCell>
        <mxCell id="F3ZU3AXajDH6FVEXSSdn-153" value="" style="endArrow=classic;html=1;rounded=0;entryX=0.15;entryY=1.062;entryDx=0;entryDy=0;entryPerimeter=0;" parent="1" target="F3ZU3AXajDH6FVEXSSdn-139" edge="1">
          <mxGeometry width="50" height="50" relative="1" as="geometry">
            <mxPoint x="1240" y="690" as="sourcePoint" />
            <mxPoint x="1290" y="640" as="targetPoint" />
          </mxGeometry>
        </mxCell>
        <mxCell id="F3ZU3AXajDH6FVEXSSdn-154" value="&lt;font&gt;&lt;u&gt;carID&lt;/u&gt;&lt;/font&gt;" style="ellipse;whiteSpace=wrap;html=1;fillColor=#1ba1e2;fontColor=#66FF66;strokeColor=#006EAF;fontFamily=Times New Roman;fontSize=20;" parent="1" vertex="1">
          <mxGeometry x="30" y="270" width="70" height="50" as="geometry" />
        </mxCell>
        <mxCell id="F3ZU3AXajDH6FVEXSSdn-155" value="" style="endArrow=none;html=1;rounded=0;exitX=0;exitY=0.25;exitDx=0;exitDy=0;entryX=1;entryY=1;entryDx=0;entryDy=0;" parent="1" source="0OkCAmIAAI_HGi2Hv4Mh-1" target="F3ZU3AXajDH6FVEXSSdn-154" edge="1">
          <mxGeometry width="50" height="50" relative="1" as="geometry">
            <mxPoint x="-30" y="220" as="sourcePoint" />
            <mxPoint x="185" y="90" as="targetPoint" />
          </mxGeometry>
        </mxCell>
        <mxCell id="F3ZU3AXajDH6FVEXSSdn-158" value="color" style="ellipse;whiteSpace=wrap;html=1;fillColor=#1ba1e2;fontColor=#66FF66;strokeColor=#006EAF;fontFamily=Times New Roman;fontSize=20;" parent="1" vertex="1">
          <mxGeometry x="70" y="220" width="70" height="50" as="geometry" />
        </mxCell>
        <mxCell id="F3ZU3AXajDH6FVEXSSdn-159" value="" style="endArrow=none;html=1;rounded=0;exitX=0;exitY=0;exitDx=0;exitDy=0;entryX=0.5;entryY=1;entryDx=0;entryDy=0;" parent="1" source="0OkCAmIAAI_HGi2Hv4Mh-1" target="F3ZU3AXajDH6FVEXSSdn-158" edge="1">
          <mxGeometry width="50" height="50" relative="1" as="geometry">
            <mxPoint x="30" y="220" as="sourcePoint" />
            <mxPoint x="350" y="130" as="targetPoint" />
          </mxGeometry>
        </mxCell>
        <mxCell id="F3ZU3AXajDH6FVEXSSdn-160" value="year" style="ellipse;whiteSpace=wrap;html=1;fillColor=#1ba1e2;fontColor=#66FF66;strokeColor=#006EAF;fontFamily=Times New Roman;fontSize=20;" parent="1" vertex="1">
          <mxGeometry x="150" y="210" width="70" height="50" as="geometry" />
        </mxCell>
        <mxCell id="F3ZU3AXajDH6FVEXSSdn-161" value="" style="endArrow=none;html=1;rounded=0;exitX=0.25;exitY=0;exitDx=0;exitDy=0;entryX=1;entryY=1;entryDx=0;entryDy=0;" parent="1" source="0OkCAmIAAI_HGi2Hv4Mh-1" target="F3ZU3AXajDH6FVEXSSdn-160" edge="1">
          <mxGeometry width="50" height="50" relative="1" as="geometry">
            <mxPoint x="100" y="315" as="sourcePoint" />
            <mxPoint x="450" y="260" as="targetPoint" />
          </mxGeometry>
        </mxCell>
        <mxCell id="F3ZU3AXajDH6FVEXSSdn-162" value="model" style="ellipse;whiteSpace=wrap;html=1;fillColor=#1ba1e2;fontColor=#66FF66;strokeColor=#006EAF;fontFamily=Times New Roman;fontSize=18;" parent="1" vertex="1">
          <mxGeometry x="230" y="210" width="70" height="50" as="geometry" />
        </mxCell>
        <mxCell id="F3ZU3AXajDH6FVEXSSdn-163" value="" style="endArrow=none;html=1;rounded=0;entryX=0.5;entryY=1;entryDx=0;entryDy=0;exitX=0.5;exitY=0;exitDx=0;exitDy=0;" parent="1" source="0OkCAmIAAI_HGi2Hv4Mh-1" target="F3ZU3AXajDH6FVEXSSdn-162" edge="1">
          <mxGeometry width="50" height="50" relative="1" as="geometry">
            <mxPoint x="60" y="250" as="sourcePoint" />
            <mxPoint x="139.99999999999613" y="205.00000000000023" as="targetPoint" />
          </mxGeometry>
        </mxCell>
        <mxCell id="F3ZU3AXajDH6FVEXSSdn-165" value="name" style="ellipse;whiteSpace=wrap;html=1;fillColor=#1ba1e2;fontColor=#66FF66;strokeColor=#006EAF;fontFamily=Times New Roman;fontSize=18;" parent="1" vertex="1">
          <mxGeometry x="300" y="230" width="70" height="50" as="geometry" />
        </mxCell>
        <mxCell id="F3ZU3AXajDH6FVEXSSdn-166" value="" style="endArrow=none;html=1;rounded=0;entryX=0.5;entryY=1;entryDx=0;entryDy=0;exitX=0.75;exitY=0;exitDx=0;exitDy=0;" parent="1" source="0OkCAmIAAI_HGi2Hv4Mh-1" target="F3ZU3AXajDH6FVEXSSdn-165" edge="1">
          <mxGeometry width="50" height="50" relative="1" as="geometry">
            <mxPoint x="175" y="300" as="sourcePoint" />
            <mxPoint x="465" y="300" as="targetPoint" />
          </mxGeometry>
        </mxCell>
        <mxCell id="F3ZU3AXajDH6FVEXSSdn-167" value="weight" style="ellipse;whiteSpace=wrap;html=1;fillColor=#1ba1e2;fontColor=#66FF66;strokeColor=#006EAF;fontFamily=Times New Roman;fontSize=18;" parent="1" vertex="1">
          <mxGeometry x="360" y="260" width="70" height="50" as="geometry" />
        </mxCell>
        <mxCell id="F3ZU3AXajDH6FVEXSSdn-168" value="" style="endArrow=none;html=1;rounded=0;entryX=0;entryY=1;entryDx=0;entryDy=0;exitX=1;exitY=0;exitDx=0;exitDy=0;" parent="1" source="0OkCAmIAAI_HGi2Hv4Mh-1" target="F3ZU3AXajDH6FVEXSSdn-167" edge="1">
          <mxGeometry width="50" height="50" relative="1" as="geometry">
            <mxPoint x="150" y="270" as="sourcePoint" />
            <mxPoint x="440" y="270" as="targetPoint" />
          </mxGeometry>
        </mxCell>
        <mxCell id="F3ZU3AXajDH6FVEXSSdn-170" value="" style="endArrow=none;html=1;rounded=0;exitX=0.5;exitY=0;exitDx=0;exitDy=0;entryX=1;entryY=0.5;entryDx=0;entryDy=0;" parent="1" source="F3ZU3AXajDH6FVEXSSdn-8" target="F3ZU3AXajDH6FVEXSSdn-171" edge="1">
          <mxGeometry width="50" height="50" relative="1" as="geometry">
            <mxPoint x="1005" y="200" as="sourcePoint" />
            <mxPoint x="525" y="-70" as="targetPoint" />
            <Array as="points">
              <mxPoint x="890" y="-70" />
            </Array>
          </mxGeometry>
        </mxCell>
        <mxCell id="F3ZU3AXajDH6FVEXSSdn-171" value="holder" style="rounded=0;whiteSpace=wrap;html=1;fillColor=#ffe6cc;strokeColor=#d79b00;fontColor=#FF3399;fontFamily=Comic Sans MS;fontSize=23;" parent="1" vertex="1">
          <mxGeometry x="414" y="-100" width="120" height="60" as="geometry" />
        </mxCell>
        <mxCell id="F3ZU3AXajDH6FVEXSSdn-173" value="has" style="rhombus;whiteSpace=wrap;html=1;fontColor=#4AEFFF;labelBackgroundColor=none;fillColor=#6d8764;strokeColor=light-dark(#3A5431, #111410);fontSize=18;" parent="1" vertex="1">
          <mxGeometry x="-110" y="60" width="80" height="80" as="geometry" />
        </mxCell>
        <mxCell id="F3ZU3AXajDH6FVEXSSdn-174" value="" style="endArrow=classic;html=1;rounded=0;exitX=0.5;exitY=0;exitDx=0;exitDy=0;entryX=0;entryY=0.5;entryDx=0;entryDy=0;" parent="1" source="F3ZU3AXajDH6FVEXSSdn-173" target="F3ZU3AXajDH6FVEXSSdn-171" edge="1">
          <mxGeometry width="50" height="50" relative="1" as="geometry">
            <mxPoint x="-60" y="50" as="sourcePoint" />
            <mxPoint x="-70" y="-120" as="targetPoint" />
            <Array as="points">
              <mxPoint x="-70" y="-70" />
            </Array>
          </mxGeometry>
        </mxCell>
        <mxCell id="F3ZU3AXajDH6FVEXSSdn-175" value="" style="endArrow=none;html=1;rounded=0;entryX=0;entryY=0.5;entryDx=0;entryDy=0;exitX=0.594;exitY=0.907;exitDx=0;exitDy=0;exitPerimeter=0;" parent="1" source="F3ZU3AXajDH6FVEXSSdn-173" target="0OkCAmIAAI_HGi2Hv4Mh-1" edge="1">
          <mxGeometry width="50" height="50" relative="1" as="geometry">
            <mxPoint x="-60" y="130" as="sourcePoint" />
            <mxPoint x="10" y="330" as="targetPoint" />
            <Array as="points">
              <mxPoint x="-60" y="350" />
            </Array>
          </mxGeometry>
        </mxCell>
        <mxCell id="F3ZU3AXajDH6FVEXSSdn-176" value="" style="endArrow=none;html=1;rounded=0;exitX=0.594;exitY=0.907;exitDx=0;exitDy=0;exitPerimeter=0;" parent="1" edge="1">
          <mxGeometry width="50" height="50" relative="1" as="geometry">
            <mxPoint x="-70" y="136.5" as="sourcePoint" />
            <mxPoint x="190" y="360" as="targetPoint" />
            <Array as="points">
              <mxPoint x="-68" y="360" />
            </Array>
          </mxGeometry>
        </mxCell>
        <mxCell id="F3ZU3AXajDH6FVEXSSdn-178" value="" style="endArrow=classic;html=1;rounded=0;entryX=0;entryY=0.75;entryDx=0;entryDy=0;" parent="1" target="F3ZU3AXajDH6FVEXSSdn-171" edge="1">
          <mxGeometry width="50" height="50" relative="1" as="geometry">
            <mxPoint x="-60" y="70" as="sourcePoint" />
            <mxPoint x="60" y="-20" as="targetPoint" />
            <Array as="points">
              <mxPoint x="-60" y="-60" />
            </Array>
          </mxGeometry>
        </mxCell>
        <mxCell id="F3ZU3AXajDH6FVEXSSdn-179" value="" style="endArrow=none;html=1;rounded=0;exitX=0.5;exitY=1;exitDx=0;exitDy=0;entryX=1;entryY=0.5;entryDx=0;entryDy=0;" parent="1" source="F3ZU3AXajDH6FVEXSSdn-8" target="F3ZU3AXajDH6FVEXSSdn-180" edge="1">
          <mxGeometry width="50" height="50" relative="1" as="geometry">
            <mxPoint x="1320" y="220" as="sourcePoint" />
            <mxPoint x="1520" y="-440" as="targetPoint" />
            <Array as="points">
              <mxPoint x="1540" y="210" />
              <mxPoint x="1540" y="-160" />
            </Array>
          </mxGeometry>
        </mxCell>
        <mxCell id="F3ZU3AXajDH6FVEXSSdn-180" value="maker" style="rounded=0;whiteSpace=wrap;html=1;fillColor=#ffe6cc;strokeColor=#d79b00;fontColor=#FF3399;fontFamily=Comic Sans MS;fontSize=23;" parent="1" vertex="1">
          <mxGeometry x="414" y="-180" width="120" height="60" as="geometry" />
        </mxCell>
        <mxCell id="F3ZU3AXajDH6FVEXSSdn-182" value="have" style="rhombus;whiteSpace=wrap;html=1;fontColor=#4AEFFF;labelBackgroundColor=none;fillColor=#6d8764;strokeColor=light-dark(#3A5431, #111410);fontSize=18;" parent="1" vertex="1">
          <mxGeometry x="-240" y="60" width="80" height="80" as="geometry" />
        </mxCell>
        <mxCell id="F3ZU3AXajDH6FVEXSSdn-184" value="" style="endArrow=none;html=1;rounded=0;entryX=0.25;entryY=1;entryDx=0;entryDy=0;exitX=0.39;exitY=0.949;exitDx=0;exitDy=0;exitPerimeter=0;" parent="1" source="F3ZU3AXajDH6FVEXSSdn-182" target="0OkCAmIAAI_HGi2Hv4Mh-1" edge="1">
          <mxGeometry width="50" height="50" relative="1" as="geometry">
            <mxPoint x="-250" y="160" as="sourcePoint" />
            <mxPoint x="230" y="450" as="targetPoint" />
            <Array as="points">
              <mxPoint x="-210" y="440" />
              <mxPoint x="220" y="440" />
            </Array>
          </mxGeometry>
        </mxCell>
        <mxCell id="F3ZU3AXajDH6FVEXSSdn-185" value="" style="endArrow=none;html=1;rounded=0;entryX=0.25;entryY=1;entryDx=0;entryDy=0;exitX=0.5;exitY=1;exitDx=0;exitDy=0;" parent="1" source="F3ZU3AXajDH6FVEXSSdn-182" edge="1">
          <mxGeometry width="50" height="50" relative="1" as="geometry">
            <mxPoint x="-190" y="190" as="sourcePoint" />
            <mxPoint x="210" y="380" as="targetPoint" />
            <Array as="points">
              <mxPoint x="-200" y="430" />
              <mxPoint x="110" y="430" />
              <mxPoint x="210" y="430" />
            </Array>
          </mxGeometry>
        </mxCell>
        <mxCell id="F3ZU3AXajDH6FVEXSSdn-186" value="" style="endArrow=none;html=1;rounded=0;entryX=0.5;entryY=0;entryDx=0;entryDy=0;exitX=0;exitY=0.5;exitDx=0;exitDy=0;" parent="1" source="F3ZU3AXajDH6FVEXSSdn-180" target="F3ZU3AXajDH6FVEXSSdn-182" edge="1">
          <mxGeometry width="50" height="50" relative="1" as="geometry">
            <mxPoint x="150" y="-150" as="sourcePoint" />
            <mxPoint x="-150" y="10" as="targetPoint" />
            <Array as="points">
              <mxPoint x="-200" y="-150" />
            </Array>
          </mxGeometry>
        </mxCell>
        <mxCell id="em4BRMY1tFie3Qn-5iSH-3" value="&lt;u&gt;carID&lt;/u&gt;" style="ellipse;whiteSpace=wrap;html=1;fillColor=#1ba1e2;fontColor=#66FF66;strokeColor=#006EAF;fontFamily=Times New Roman;fontSize=20;" parent="1" vertex="1">
          <mxGeometry x="327" y="-10" width="70" height="50" as="geometry" />
        </mxCell>
        <mxCell id="em4BRMY1tFie3Qn-5iSH-4" value="" style="endArrow=none;html=1;rounded=0;exitX=1;exitY=0;exitDx=0;exitDy=0;entryX=0.25;entryY=1;entryDx=0;entryDy=0;" parent="1" source="em4BRMY1tFie3Qn-5iSH-3" target="F3ZU3AXajDH6FVEXSSdn-171" edge="1">
          <mxGeometry width="50" height="50" relative="1" as="geometry">
            <mxPoint x="457" y="160" as="sourcePoint" />
            <mxPoint x="440" y="100" as="targetPoint" />
          </mxGeometry>
        </mxCell>
        <mxCell id="em4BRMY1tFie3Qn-5iSH-5" value="&lt;u&gt;carID&lt;/u&gt;" style="ellipse;whiteSpace=wrap;html=1;fillColor=#1ba1e2;fontColor=#66FF66;strokeColor=#006EAF;fontFamily=Times New Roman;fontSize=20;" parent="1" vertex="1">
          <mxGeometry x="327" y="-250" width="70" height="50" as="geometry" />
        </mxCell>
        <mxCell id="em4BRMY1tFie3Qn-5iSH-6" value="" style="endArrow=none;html=1;rounded=0;exitX=1;exitY=0.5;exitDx=0;exitDy=0;entryX=0.25;entryY=0;entryDx=0;entryDy=0;" parent="1" source="em4BRMY1tFie3Qn-5iSH-5" target="F3ZU3AXajDH6FVEXSSdn-180" edge="1">
          <mxGeometry width="50" height="50" relative="1" as="geometry">
            <mxPoint x="457" y="-80" as="sourcePoint" />
            <mxPoint x="444" y="-280" as="targetPoint" />
          </mxGeometry>
        </mxCell>
        <mxCell id="mvQH_CWANNMJnZH-ib32-1" value="have" style="rhombus;whiteSpace=wrap;html=1;fontColor=#4AEFFF;labelBackgroundColor=none;fillColor=#6d8764;strokeColor=light-dark(#3A5431, #111410);fontSize=18;" vertex="1" parent="1">
          <mxGeometry x="1225" y="60" width="80" height="80" as="geometry" />
        </mxCell>
        <mxCell id="mvQH_CWANNMJnZH-ib32-2" value="&lt;font&gt;wallet&lt;/font&gt;" style="rounded=0;whiteSpace=wrap;html=1;fillColor=#ffe6cc;strokeColor=#d79b00;fontColor=#FF3399;fontFamily=Comic Sans MS;fontSize=23;" vertex="1" parent="1">
          <mxGeometry x="1380" y="70" width="120" height="60" as="geometry" />
        </mxCell>
        <mxCell id="mvQH_CWANNMJnZH-ib32-6" value="&lt;u style=&quot;font-size: 16px;&quot;&gt;personID&lt;/u&gt;" style="ellipse;whiteSpace=wrap;html=1;fillColor=#1ba1e2;fontColor=#66FF66;strokeColor=#006EAF;fontFamily=Times New Roman;fontSize=20;" vertex="1" parent="1">
          <mxGeometry x="1350" y="-40" width="70" height="50" as="geometry" />
        </mxCell>
        <mxCell id="mvQH_CWANNMJnZH-ib32-7" value="" style="endArrow=none;html=1;rounded=0;exitX=0.5;exitY=1;exitDx=0;exitDy=0;entryX=0.25;entryY=0;entryDx=0;entryDy=0;" edge="1" parent="1" source="mvQH_CWANNMJnZH-ib32-6" target="mvQH_CWANNMJnZH-ib32-2">
          <mxGeometry width="50" height="50" relative="1" as="geometry">
            <mxPoint x="1460" y="831" as="sourcePoint" />
            <mxPoint x="1515" y="631" as="targetPoint" />
          </mxGeometry>
        </mxCell>
        <mxCell id="mvQH_CWANNMJnZH-ib32-8" value="value" style="ellipse;whiteSpace=wrap;html=1;fillColor=#1ba1e2;fontColor=#66FF66;strokeColor=#006EAF;fontFamily=Times New Roman;fontSize=18;direction=west;" vertex="1" parent="1">
          <mxGeometry x="1440" y="-45" width="70" height="50" as="geometry" />
        </mxCell>
        <mxCell id="mvQH_CWANNMJnZH-ib32-9" value="" style="endArrow=none;html=1;rounded=0;entryX=0.5;entryY=0;entryDx=0;entryDy=0;exitX=0.75;exitY=0;exitDx=0;exitDy=0;" edge="1" parent="1" source="mvQH_CWANNMJnZH-ib32-2" target="mvQH_CWANNMJnZH-ib32-8">
          <mxGeometry width="50" height="50" relative="1" as="geometry">
            <mxPoint x="1640" y="716" as="sourcePoint" />
            <mxPoint x="1920" y="391" as="targetPoint" />
          </mxGeometry>
        </mxCell>
        <mxCell id="mvQH_CWANNMJnZH-ib32-10" value="" style="endArrow=classic;html=1;rounded=0;exitX=1;exitY=0.5;exitDx=0;exitDy=0;entryX=0;entryY=0.5;entryDx=0;entryDy=0;" edge="1" parent="1" source="mvQH_CWANNMJnZH-ib32-1" target="mvQH_CWANNMJnZH-ib32-2">
          <mxGeometry width="50" height="50" relative="1" as="geometry">
            <mxPoint x="1630" y="551" as="sourcePoint" />
            <mxPoint x="1680" y="501" as="targetPoint" />
          </mxGeometry>
        </mxCell>
        <mxCell id="mvQH_CWANNMJnZH-ib32-11" value="" style="endArrow=classic;html=1;rounded=0;" edge="1" parent="1">
          <mxGeometry width="50" height="50" relative="1" as="geometry">
            <mxPoint x="1230" y="98.66999999999999" as="sourcePoint" />
            <mxPoint x="1170" y="98.66999999999999" as="targetPoint" />
          </mxGeometry>
        </mxCell>
        <mxCell id="mvQH_CWANNMJnZH-ib32-12" value="" style="endArrow=classic;html=1;rounded=0;exitX=0.13;exitY=0.635;exitDx=0;exitDy=0;exitPerimeter=0;" edge="1" parent="1" source="mvQH_CWANNMJnZH-ib32-1">
          <mxGeometry width="50" height="50" relative="1" as="geometry">
            <mxPoint x="1230" y="110" as="sourcePoint" />
            <mxPoint x="1170" y="110" as="targetPoint" />
          </mxGeometry>
        </mxCell>
        <mxCell id="mvQH_CWANNMJnZH-ib32-13" value="" style="endArrow=classic;html=1;rounded=0;exitX=0.917;exitY=0.635;exitDx=0;exitDy=0;exitPerimeter=0;" edge="1" parent="1" source="mvQH_CWANNMJnZH-ib32-1">
          <mxGeometry width="50" height="50" relative="1" as="geometry">
            <mxPoint x="1310" y="110" as="sourcePoint" />
            <mxPoint x="1380" y="110" as="targetPoint" />
          </mxGeometry>
        </mxCell>
      </root>
    </mxGraphModel>
  </diagram>
</mxfile>
